<?xml version="1.0" encoding="utf-8"?>
<!-- Generator: Adobe Illustrator 26.5.2, SVG Export Plug-In . SVG Version: 6.00 Build 0)  -->
<svg version="1.1" id="Layer_1" xmlns="http://www.w3.org/2000/svg" xmlns:xlink="http://www.w3.org/1999/xlink" x="0px" y="0px"
	 viewBox="0 0 1000 1000" style="enable-background:new 0 0 1000 1000;" xml:space="preserve">
<style type="text/css">
	.st0{fill:#005725;stroke:#005725;stroke-miterlimit:10;}
	.st1{fill:#FFFFFF;stroke:#005725;stroke-miterlimit:10;}
	.st2{stroke:#000000;stroke-miterlimit:10;}
	.st3{fill:#FFFFFF;stroke:#000000;stroke-miterlimit:10;}
	.st4{fill:#FFFFFF;}
	.st5{fill:#005725;}
</style>
<g>
	<path class="st5" d="M211.2,273.5c0,0,23.7-18.2,58.9-32.8v107.5h18v-110c0,0,51.1-24.5,82.7-24.5c0,0-20.5,31-32,142.7
		c-5,48.1-6.5,187.6-9.1,219c-1.2,14.6-2.9-5.5-15.8-26.7c-9.5-15.6-25.8-22.5-25.8-22.5V368.2h-18l6.7,149.6
		c0,0-29.8-17.1-60.7-17.1"/>
	<g>
		<path class="st5" d="M400.1,213.4c-48.6,0-58.9,329.2-64.4,366.3h49.9V367.2h18.6v212.5h41.4C445.7,579.7,448.7,213.4,400.1,213.4
			z M385.7,347.9c0,0,5.2-100,9.6-100.5c6.1-0.6,8.3,100.5,8.3,100.5H385.7z"/>
	</g>
	<path class="st5" d="M464.2,579.3c0,0,5.3-212.1-21.3-305.5c-15-52.5-17.3-62.7-17.3-62.7s6.7-3.8,61.4,4.1c0,0,30.7,70.6,28,176
		c0,0,26.3-106.6-5.3-173.4c0,0,24.9,2.7,68,24l0.7,337.9c0,0-56,1.1-55.3,0c45.3-65.8,12.1-192.6,12.1-192.6s-9.6,164.1-14.9,164.1
		c-4.7,0-28.8-164.7-28.8-164.7s-27.2,95.4,26.7,193.2C518.4,580.2,464.2,579.3,464.2,579.3z"/>
	<path class="st5" d="M596.2,246.8v332.9h79.4V407.2c0,0,0.7,13.3-43.3,13.3l-0.1-18.2c0,0,37.9,0.6,37.9-10.9s-37.9-14.6-37.9-14.6
		l0.1-19c0,0,43.3,1.5,43.3,17.3v-50C675.6,325.2,667.3,285.1,596.2,246.8z"/>
	<path class="st5" d="M747,278.8v279.5c0,0,29.2,5.3,42.7,4.9c13.5-0.4,48-1.3,48-20c0-9-11.1-135.4-13.3-146.7
		c-2.7-13.3-41.4-14.4-41.4-14.4l0.1-19c0,0,29.3,1.3,46.7,10.7c0,0,0-10.7,5.3-20c4.9-8.6,10.7-12,10.7-12S818,317.1,747,278.8z"/>
	<path class="st5" d="M693.5,254.1v344.4c0,5.1,4.1,9.1,9.1,9.1h100.2c0,0,60.1-2.4,60.7-9.7s-24.3-29.4-24.3-29.4s-25.2,6.7-55,6.7
		c-29.8,0-53.4-7.7-53.4-7.7V270.3C731,270.3,715,260.5,693.5,254.1z"/>
	<path class="st5" d="M856.5,563.4l22.6,27.9c49-48.4,16.2-94.3,20-94.7c4.2-0.4,24,21.3,16,49.4c-4.1,14.3-13.3,33.3-13.3,33.3
		c24.9-3,56.1-33,52.4-94.9c-5.4-91.4-99.1-135.8-99.1-135.8s-23.6,28-8,34.7c65.4,28,69.9,77.5,69.4,77.4c-16-32-82.7-82.7-80-52
		c1.3,14.5,11,108,12.8,138.5C849.5,553.2,852.1,559,856.5,563.4z"/>
	<path class="st5" d="M144,585.9c0,44.2,52,60,52,54.7c0-2.7-19.5-5.3-19.5-25.1c0-44.3,62.3-46.8,62.3,0.3
		c0,22.5-20.4,39.8-55.6,39.8c-26.1,0-54.7-16.2-54.7-66.8c0-70.9,70.1-86.9,70.1-86.9l-5.5-220c0,0-145.5,127.1-145.5,315.4
		c0,98.5,70.8,136.7,121.5,136.7c72.1,0,138.3-33.1,142.8-110.7c4.3-73.5-45-106.7-102.7-106.7C166.7,516.6,144,561.9,144,585.9z"/>
	<g>
		<circle class="st4" cx="820.4" cy="481.9" r="44"/>
		<circle class="st5" cx="809.4" cy="464.3" r="13.1"/>
	</g>
</g>
</svg>
